<mxfile host="app.diagrams.net" agent="Mozilla/5.0 (Windows NT 10.0; Win64; x64) AppleWebKit/537.36 (KHTML, like Gecko) Chrome/128.0.0.0 Safari/537.36 OPR/114.0.0.0" version="25.0.3">
  <diagram id="C5RBs43oDa-KdzZeNtuy" name="Page-1">
    <mxGraphModel dx="1836" dy="619" grid="1" gridSize="10" guides="1" tooltips="1" connect="1" arrows="1" fold="1" page="1" pageScale="1" pageWidth="827" pageHeight="1169" math="0" shadow="0">
      <root>
        <mxCell id="WIyWlLk6GJQsqaUBKTNV-0" />
        <mxCell id="WIyWlLk6GJQsqaUBKTNV-1" parent="WIyWlLk6GJQsqaUBKTNV-0" />
        <mxCell id="XJSKBv1WSOzIokyZPbyB-2" style="edgeStyle=orthogonalEdgeStyle;rounded=0;orthogonalLoop=1;jettySize=auto;html=1;" edge="1" parent="WIyWlLk6GJQsqaUBKTNV-1" source="XJSKBv1WSOzIokyZPbyB-0" target="XJSKBv1WSOzIokyZPbyB-1">
          <mxGeometry relative="1" as="geometry" />
        </mxCell>
        <mxCell id="XJSKBv1WSOzIokyZPbyB-0" value="start" style="strokeWidth=2;html=1;shape=mxgraph.flowchart.start_1;whiteSpace=wrap;" vertex="1" parent="WIyWlLk6GJQsqaUBKTNV-1">
          <mxGeometry x="310" y="50" width="100" height="60" as="geometry" />
        </mxCell>
        <mxCell id="XJSKBv1WSOzIokyZPbyB-25" style="edgeStyle=orthogonalEdgeStyle;rounded=0;orthogonalLoop=1;jettySize=auto;html=1;" edge="1" parent="WIyWlLk6GJQsqaUBKTNV-1" source="XJSKBv1WSOzIokyZPbyB-1">
          <mxGeometry relative="1" as="geometry">
            <mxPoint x="250" y="190" as="targetPoint" />
          </mxGeometry>
        </mxCell>
        <mxCell id="XJSKBv1WSOzIokyZPbyB-32" style="edgeStyle=orthogonalEdgeStyle;rounded=0;orthogonalLoop=1;jettySize=auto;html=1;" edge="1" parent="WIyWlLk6GJQsqaUBKTNV-1" source="XJSKBv1WSOzIokyZPbyB-1">
          <mxGeometry relative="1" as="geometry">
            <mxPoint x="510" y="190" as="targetPoint" />
          </mxGeometry>
        </mxCell>
        <mxCell id="XJSKBv1WSOzIokyZPbyB-1" value="input a" style="shape=parallelogram;html=1;strokeWidth=2;perimeter=parallelogramPerimeter;whiteSpace=wrap;rounded=1;arcSize=12;size=0.23;" vertex="1" parent="WIyWlLk6GJQsqaUBKTNV-1">
          <mxGeometry x="310" y="160" width="100" height="60" as="geometry" />
        </mxCell>
        <mxCell id="XJSKBv1WSOzIokyZPbyB-11" value="end" style="strokeWidth=2;html=1;shape=mxgraph.flowchart.start_1;whiteSpace=wrap;" vertex="1" parent="WIyWlLk6GJQsqaUBKTNV-1">
          <mxGeometry x="250" y="650" width="100" height="60" as="geometry" />
        </mxCell>
        <mxCell id="XJSKBv1WSOzIokyZPbyB-28" style="edgeStyle=orthogonalEdgeStyle;rounded=0;orthogonalLoop=1;jettySize=auto;html=1;" edge="1" parent="WIyWlLk6GJQsqaUBKTNV-1" source="XJSKBv1WSOzIokyZPbyB-26">
          <mxGeometry relative="1" as="geometry">
            <mxPoint x="90" y="190" as="targetPoint" />
          </mxGeometry>
        </mxCell>
        <mxCell id="XJSKBv1WSOzIokyZPbyB-30" style="edgeStyle=orthogonalEdgeStyle;rounded=0;orthogonalLoop=1;jettySize=auto;html=1;" edge="1" parent="WIyWlLk6GJQsqaUBKTNV-1" source="XJSKBv1WSOzIokyZPbyB-26">
          <mxGeometry relative="1" as="geometry">
            <mxPoint x="190" y="290" as="targetPoint" />
          </mxGeometry>
        </mxCell>
        <mxCell id="XJSKBv1WSOzIokyZPbyB-26" value="4 &amp;lt;= a &amp;lt;=6" style="strokeWidth=2;html=1;shape=mxgraph.flowchart.decision;whiteSpace=wrap;" vertex="1" parent="WIyWlLk6GJQsqaUBKTNV-1">
          <mxGeometry x="140" y="140" width="100" height="100" as="geometry" />
        </mxCell>
        <mxCell id="XJSKBv1WSOzIokyZPbyB-58" style="edgeStyle=orthogonalEdgeStyle;rounded=0;orthogonalLoop=1;jettySize=auto;html=1;" edge="1" parent="WIyWlLk6GJQsqaUBKTNV-1" source="XJSKBv1WSOzIokyZPbyB-29">
          <mxGeometry relative="1" as="geometry">
            <mxPoint x="300" y="650" as="targetPoint" />
            <Array as="points">
              <mxPoint x="30" y="420" />
              <mxPoint x="301" y="420" />
            </Array>
          </mxGeometry>
        </mxCell>
        <mxCell id="XJSKBv1WSOzIokyZPbyB-29" value="trung bình" style="strokeWidth=2;html=1;shape=mxgraph.flowchart.display;whiteSpace=wrap;" vertex="1" parent="WIyWlLk6GJQsqaUBKTNV-1">
          <mxGeometry x="-20" y="160" width="100" height="60" as="geometry" />
        </mxCell>
        <mxCell id="XJSKBv1WSOzIokyZPbyB-57" style="edgeStyle=orthogonalEdgeStyle;rounded=0;orthogonalLoop=1;jettySize=auto;html=1;" edge="1" parent="WIyWlLk6GJQsqaUBKTNV-1" source="XJSKBv1WSOzIokyZPbyB-31">
          <mxGeometry relative="1" as="geometry">
            <mxPoint x="300" y="650" as="targetPoint" />
          </mxGeometry>
        </mxCell>
        <mxCell id="XJSKBv1WSOzIokyZPbyB-31" value="không đạt" style="strokeWidth=2;html=1;shape=mxgraph.flowchart.display;whiteSpace=wrap;" vertex="1" parent="WIyWlLk6GJQsqaUBKTNV-1">
          <mxGeometry x="130" y="290" width="100" height="60" as="geometry" />
        </mxCell>
        <mxCell id="XJSKBv1WSOzIokyZPbyB-34" style="edgeStyle=orthogonalEdgeStyle;rounded=0;orthogonalLoop=1;jettySize=auto;html=1;" edge="1" parent="WIyWlLk6GJQsqaUBKTNV-1" source="XJSKBv1WSOzIokyZPbyB-33">
          <mxGeometry relative="1" as="geometry">
            <mxPoint x="680" y="190" as="targetPoint" />
          </mxGeometry>
        </mxCell>
        <mxCell id="XJSKBv1WSOzIokyZPbyB-39" style="edgeStyle=orthogonalEdgeStyle;rounded=0;orthogonalLoop=1;jettySize=auto;html=1;" edge="1" parent="WIyWlLk6GJQsqaUBKTNV-1" source="XJSKBv1WSOzIokyZPbyB-33">
          <mxGeometry relative="1" as="geometry">
            <mxPoint x="560" y="300" as="targetPoint" />
          </mxGeometry>
        </mxCell>
        <mxCell id="XJSKBv1WSOzIokyZPbyB-33" value="6 &amp;lt; a &amp;lt;=8" style="strokeWidth=2;html=1;shape=mxgraph.flowchart.decision;whiteSpace=wrap;" vertex="1" parent="WIyWlLk6GJQsqaUBKTNV-1">
          <mxGeometry x="510" y="140" width="100" height="100" as="geometry" />
        </mxCell>
        <mxCell id="XJSKBv1WSOzIokyZPbyB-35" value="khá" style="strokeWidth=2;html=1;shape=mxgraph.flowchart.display;whiteSpace=wrap;" vertex="1" parent="WIyWlLk6GJQsqaUBKTNV-1">
          <mxGeometry x="690" y="160" width="100" height="60" as="geometry" />
        </mxCell>
        <mxCell id="XJSKBv1WSOzIokyZPbyB-36" value="true" style="text;html=1;align=center;verticalAlign=middle;resizable=0;points=[];autosize=1;strokeColor=none;fillColor=none;" vertex="1" parent="WIyWlLk6GJQsqaUBKTNV-1">
          <mxGeometry x="100" y="160" width="40" height="30" as="geometry" />
        </mxCell>
        <mxCell id="XJSKBv1WSOzIokyZPbyB-37" value="false" style="text;html=1;align=center;verticalAlign=middle;resizable=0;points=[];autosize=1;strokeColor=none;fillColor=none;" vertex="1" parent="WIyWlLk6GJQsqaUBKTNV-1">
          <mxGeometry x="140" y="240" width="50" height="30" as="geometry" />
        </mxCell>
        <mxCell id="XJSKBv1WSOzIokyZPbyB-38" value="true" style="text;html=1;align=center;verticalAlign=middle;resizable=0;points=[];autosize=1;strokeColor=none;fillColor=none;" vertex="1" parent="WIyWlLk6GJQsqaUBKTNV-1">
          <mxGeometry x="620" y="160" width="40" height="30" as="geometry" />
        </mxCell>
        <mxCell id="XJSKBv1WSOzIokyZPbyB-40" value="false" style="text;html=1;align=center;verticalAlign=middle;resizable=0;points=[];autosize=1;strokeColor=none;fillColor=none;" vertex="1" parent="WIyWlLk6GJQsqaUBKTNV-1">
          <mxGeometry x="505" y="248" width="50" height="30" as="geometry" />
        </mxCell>
        <mxCell id="XJSKBv1WSOzIokyZPbyB-45" style="edgeStyle=orthogonalEdgeStyle;rounded=0;orthogonalLoop=1;jettySize=auto;html=1;" edge="1" parent="WIyWlLk6GJQsqaUBKTNV-1" source="XJSKBv1WSOzIokyZPbyB-41">
          <mxGeometry relative="1" as="geometry">
            <mxPoint x="560" y="460" as="targetPoint" />
          </mxGeometry>
        </mxCell>
        <mxCell id="XJSKBv1WSOzIokyZPbyB-41" value="8 &amp;lt; a &amp;lt;=9" style="strokeWidth=2;html=1;shape=mxgraph.flowchart.decision;whiteSpace=wrap;" vertex="1" parent="WIyWlLk6GJQsqaUBKTNV-1">
          <mxGeometry x="510" y="310" width="100" height="100" as="geometry" />
        </mxCell>
        <mxCell id="XJSKBv1WSOzIokyZPbyB-43" value="true" style="text;html=1;align=center;verticalAlign=middle;resizable=0;points=[];autosize=1;strokeColor=none;fillColor=none;" vertex="1" parent="WIyWlLk6GJQsqaUBKTNV-1">
          <mxGeometry x="470" y="330" width="40" height="30" as="geometry" />
        </mxCell>
        <mxCell id="XJSKBv1WSOzIokyZPbyB-56" style="edgeStyle=orthogonalEdgeStyle;rounded=0;orthogonalLoop=1;jettySize=auto;html=1;" edge="1" parent="WIyWlLk6GJQsqaUBKTNV-1" source="XJSKBv1WSOzIokyZPbyB-44">
          <mxGeometry relative="1" as="geometry">
            <mxPoint x="300" y="650" as="targetPoint" />
          </mxGeometry>
        </mxCell>
        <mxCell id="XJSKBv1WSOzIokyZPbyB-44" value="giỏi" style="strokeWidth=2;html=1;shape=mxgraph.flowchart.display;whiteSpace=wrap;" vertex="1" parent="WIyWlLk6GJQsqaUBKTNV-1">
          <mxGeometry x="364" y="330" width="100" height="60" as="geometry" />
        </mxCell>
        <mxCell id="XJSKBv1WSOzIokyZPbyB-46" value="false" style="text;html=1;align=center;verticalAlign=middle;resizable=0;points=[];autosize=1;strokeColor=none;fillColor=none;" vertex="1" parent="WIyWlLk6GJQsqaUBKTNV-1">
          <mxGeometry x="505" y="410" width="50" height="30" as="geometry" />
        </mxCell>
        <mxCell id="XJSKBv1WSOzIokyZPbyB-49" style="edgeStyle=orthogonalEdgeStyle;rounded=0;orthogonalLoop=1;jettySize=auto;html=1;" edge="1" parent="WIyWlLk6GJQsqaUBKTNV-1" source="XJSKBv1WSOzIokyZPbyB-47">
          <mxGeometry relative="1" as="geometry">
            <mxPoint x="450" y="510" as="targetPoint" />
          </mxGeometry>
        </mxCell>
        <mxCell id="XJSKBv1WSOzIokyZPbyB-47" value="9 &amp;lt; a &amp;lt;=10" style="strokeWidth=2;html=1;shape=mxgraph.flowchart.decision;whiteSpace=wrap;" vertex="1" parent="WIyWlLk6GJQsqaUBKTNV-1">
          <mxGeometry x="510" y="460" width="100" height="100" as="geometry" />
        </mxCell>
        <mxCell id="XJSKBv1WSOzIokyZPbyB-48" style="edgeStyle=orthogonalEdgeStyle;rounded=0;orthogonalLoop=1;jettySize=auto;html=1;entryX=1;entryY=0.5;entryDx=0;entryDy=0;entryPerimeter=0;" edge="1" parent="WIyWlLk6GJQsqaUBKTNV-1" source="XJSKBv1WSOzIokyZPbyB-41" target="XJSKBv1WSOzIokyZPbyB-44">
          <mxGeometry relative="1" as="geometry" />
        </mxCell>
        <mxCell id="XJSKBv1WSOzIokyZPbyB-50" value="true" style="text;html=1;align=center;verticalAlign=middle;resizable=0;points=[];autosize=1;strokeColor=none;fillColor=none;" vertex="1" parent="WIyWlLk6GJQsqaUBKTNV-1">
          <mxGeometry x="464" y="478" width="40" height="30" as="geometry" />
        </mxCell>
        <mxCell id="XJSKBv1WSOzIokyZPbyB-53" value="xuất sắc" style="strokeWidth=2;html=1;shape=mxgraph.flowchart.display;whiteSpace=wrap;" vertex="1" parent="WIyWlLk6GJQsqaUBKTNV-1">
          <mxGeometry x="350" y="480" width="100" height="60" as="geometry" />
        </mxCell>
        <mxCell id="XJSKBv1WSOzIokyZPbyB-54" style="edgeStyle=orthogonalEdgeStyle;rounded=0;orthogonalLoop=1;jettySize=auto;html=1;entryX=1;entryY=0.5;entryDx=0;entryDy=0;entryPerimeter=0;" edge="1" parent="WIyWlLk6GJQsqaUBKTNV-1" source="XJSKBv1WSOzIokyZPbyB-35" target="XJSKBv1WSOzIokyZPbyB-11">
          <mxGeometry relative="1" as="geometry">
            <Array as="points">
              <mxPoint x="750" y="680" />
            </Array>
          </mxGeometry>
        </mxCell>
        <mxCell id="XJSKBv1WSOzIokyZPbyB-55" style="edgeStyle=orthogonalEdgeStyle;rounded=0;orthogonalLoop=1;jettySize=auto;html=1;entryX=0.5;entryY=0;entryDx=0;entryDy=0;entryPerimeter=0;" edge="1" parent="WIyWlLk6GJQsqaUBKTNV-1" source="XJSKBv1WSOzIokyZPbyB-53" target="XJSKBv1WSOzIokyZPbyB-11">
          <mxGeometry relative="1" as="geometry">
            <Array as="points">
              <mxPoint x="300" y="510" />
            </Array>
          </mxGeometry>
        </mxCell>
      </root>
    </mxGraphModel>
  </diagram>
</mxfile>
